#!OML:ASF H:\GeneralSubjects\Female5\Project 1\Capture day 1\Session 1\Female5.ASF
:FULLY-SPECIFIED
:DEGREES
365
root 5.40235 15.0947 0.438832 167.611 -84.8807 -176.245
lowerback 17.0277 1.81515 0.677549
upperback -4.97436 2.64972 0.366869
thorax -15.2662 1.16174 -0.75673
lowerneck -12.3196 -2.17663 -1.356
upperneck 36.3913 -3.84371 -1.58634
head 14.5988 -2.60825 -1.16295
rclavicle 1.48095e-014 6.16232e-015
rhumerus 18.6135 -7.09023 -22.5369
rradius 104.223
rwrist -2.51461
rhand -41.2332 2.1983
rfingers 7.12502
rthumb -14.1563 -27.2994
lclavicle 1.48095e-014 6.16232e-015
lhumerus 31.4021 3.11124 31.0288
lradius 101.342
lwrist -28.2434
lhand -59.4069 28.8984
lfingers 7.12502
lthumb -31.5871 -303.814
rfemur -2.45324 2.15399 18.3393
rtibia 34.3159
rfoot -26.6951 -14.8573
rtoes -21.0532
lfemur -4.20227 -11.5354 -23.1542
ltibia 37.7865
lfoot -28.3274 -9.18696
ltoes -44.1188
366
root 5.40854 15.0528 0.492182 184.404 -85.4224 -192.853
lowerback 16.9792 1.62253 0.1701
upperback -4.97017 2.21692 -0.0177362
thorax -15.2384 0.988167 -0.77486
lowerneck -12.4854 -2.02251 -1.55808
upperneck 36.4029 -3.46324 -1.79444
head 14.6441 -2.49735 -1.1571
rclavicle 8.94531e-015 9.0447e-015
rhumerus 19.1928 -7.34204 -22.4301
rradius 104.436
rwrist -2.6615
rhand -41.2351 2.017
rfingers 7.12502
rthumb -14.1582 -27.4806
lclavicle 8.94531e-015 9.0447e-015
lhumerus 30.7393 3.80621 31.0395
lradius 101.563
lwrist -28.1703
lhand -59.4421 28.8835
lfingers 7.12502
lthumb -31.6206 -303.835
rfemur -3.76998 3.40541 17.1171
rtibia 36.7341
rfoot -27.9003 -16.6662
rtoes -22.9017
lfemur -4.58806 -9.8701 -24.2362
ltibia 37.3448
lfoot -26.9098 -9.87592
ltoes -43.9836
367
root 5.42396 15.0249 0.545394 201.368 -85.512 -209.429
lowerback 16.9223 1.63331 0.618943
upperback -5.20437 2.19228 -0.973123
thorax -15.4262 0.864315 -2.10916
lowerneck -11.9563 -2.23304 -1.55895
upperneck 36.2928 -3.93914 -1.41663
head 14.4795 -2.6563 -1.06032
rclavicle -8.90183e-015 5.08143e-015
rhumerus 18.1504 -7.80031 -22.444
rradius 104.93
rwrist -3.00096
rhand -41.207 1.75066
rfingers 7.12502
rthumb -14.1311 -27.7488
lclavicle -8.90183e-015 5.08143e-015
lhumerus 31.2088 3.59621 30.8334
lradius 101.75
lwrist -28.0541
lhand -59.2874 28.65
lfingers 7.12502
lthumb -31.4732 -304.04
rfemur -5.22856 4.92037 16.1371
rtibia 38.9484
rfoot -29.4641 -18.0458
rtoes -22.7259
lfemur -5.20288 -8.43992 -25.2203
ltibia 36.9893
lfoot -25.6184 -10.4256
ltoes -43.5085
368
root 5.44356 15.0094 0.596676 216.026 -85.2237 -223.475
lowerback 16.6454 1.4514 0.569586
upperback -5.33022 1.8673 -1.39712
thorax -15.4047 0.690351 -2.45971
lowerneck -11.8875 -2.29463 -2.04787
upperneck 36.2121 -3.94096 -1.2926
head 14.444 -2.70636 -0.920234
rclavicle -1.24675e-014 6.36111e-015
rhumerus 18.4419 -8.13356 -22.5671
rradius 105.272
rwrist -3.30386
rhand -41.308 1.57541
rfingers 7.12502
rthumb -14.2284 -27.9172
lclavicle -1.24675e-014 6.36111e-015
lhumerus 30.639 4.1677 30.8523
lradius 102.131
lwrist -28.1016
lhand -59.0654 28.4407
lfingers 7.12502
lthumb -31.2616 -304.208
rfemur -6.71639 6.56026 15.3075
rtibia 40.7598
rfoot -31.2702 -19.164
rtoes -21.7297
lfemur -6.02567 -7.20352 -26.1464
ltibia 36.6509
lfoot -24.4654 -10.8266
ltoes -43.2665
369
root 5.46767 15.0071 0.641671 226.423 -84.7292 -233.044
lowerback 16.3185 1.41741 1.18733
upperback -5.63189 1.82492 -2.23795
thorax -15.5224 0.541963 -3.75324
lowerneck -11.6057 -2.39201 -2.01608
upperneck 36.1698 -4.21496 -1.00226
head 14.3685 -2.78467 -0.841808
rclavicle -9.69075e-015 9.14409e-015
rhumerus 17.5226 -8.60305 -22.9861
rradius 105.839
rwrist -3.66261
rhand -41.4629 1.47332
rfingers 7.12502
rthumb -14.3777 -28.0087
lclavicle -9.69075e-015 9.14409e-015
lhumerus 30.7398 4.08504 30.7336
lradius 102.539
lwrist -28.0775
lhand -59.1999 29.1949
lfingers 7.12502
lthumb -31.3898 -303.479
rfemur -8.22585 8.19283 14.6598
rtibia 42.1117
rfoot -32.8069 -20.4264
rtoes -21.1456
lfemur -6.9625 -6.19624 -26.9144
ltibia 36.2558
lfoot -23.4607 -11.182
ltoes -43.278
370
root 5.49674 15.0161 0.68296 234.191 -84.1059 -239.849
lowerback 15.9663 1.29186 1.25737
upperback -5.89464 1.59369 -2.66228
thorax -15.6254 0.389097 -4.20663
lowerneck -11.8217 -2.30704 -2.06287
upperneck 36.2091 -4.00348 -1.15806
head 14.4319 -2.71658 -0.87039
rclavicle 2.29596e-014 1.37658e-014
rhumerus 17.467 -8.81304 -23.5247
rradius 106.443
rwrist -4.24028
rhand -41.551 1.38474
rfingers 7.12502
rthumb -14.4626 -28.0913
lclavicle 2.29596e-014 1.37658e-014
lhumerus 30.183 4.45881 30.6747
lradius 102.952
lwrist -27.9721
lhand -59.397 30.2421
lfingers 7.12502
lthumb -31.5776 -302.468
rfemur -9.69882 9.80515 13.9534
rtibia 42.9612
rfoot -33.8369 -21.683
rtoes -20.0808
lfemur -7.94375 -5.60486 -27.7521
ltibia 35.7513
lfoot -22.6482 -11.3748
ltoes -43.2591
371
root 5.5401 15.0327 0.719056 240.589 -83.4741 -245.179
lowerback 15.7208 1.13411 1.09393
upperback -6.15082 1.3 -2.86231
thorax -15.8066 0.245045 -4.25889
lowerneck -12.3878 -2.11388 -2.19097
upperneck 36.3069 -3.49542 -1.54798
head 14.5997 -2.55806 -0.943218
rclavicle -4.36394e-015 -4.47266e-015
rhumerus 17.775 -8.97836 -24.0238
rradius 107.1
rwrist -4.94551
rhand -41.1501 0.957079
rfingers 7.12502
rthumb -14.0763 -28.5462
lclavicle -4.36394e-015 -4.47266e-015
lhumerus 29.3258 4.99804 30.8081
lradius 103.564
lwrist -27.8714
lhand -59.4248 30.3749
lfingers 7.12502
lthumb -31.6041 -302.34
rfemur -11.208 11.283 13.1043
rtibia 43.4356
rfoot -34.5912 -22.7569
rtoes -19.1394
lfemur -9.21714 -5.50821 -28.6381
ltibia 35.4471
lfoot -22.0408 -11.462
ltoes -43.1952
372
root 5.60281 15.0598 0.745977 245.582 -82.9615 -249.053
lowerback 15.6802 1.15202 1.49623
upperback -6.50037 1.3121 -3.40107
thorax -16.1928 0.143338 -5.12929
lowerneck -12.0972 -2.3059 -2.19838
upperneck 35.9112 -3.77426 -1.49747
head 14.3504 -2.66172 -0.943729
rclavicle -7.99798e-015 1.36416e-014
rhumerus 16.8838 -9.36561 -24.2971
rradius 107.832
rwrist -5.87869
rhand -40.5379 0.631727
rfingers 7.12502
rthumb -13.4863 -28.9116
lclavicle -7.99798e-015 1.36416e-014
lhumerus 29.2296 4.89011 30.9682
lradius 104.348
lwrist -27.6247
lhand -59.3843 30.2017
lfingers 7.12502
lthumb -31.5655 -302.506
rfemur -12.8026 12.4669 12.2471
rtibia 43.7461
rfoot -35.1272 -23.4286
rtoes -18.9738
lfemur -10.7462 -5.74834 -29.3444
ltibia 35.318
lfoot -21.5584 -11.5013
ltoes -43.0006
373
root 5.67196 15.0984 0.768361 248.651 -82.4597 -250.932
lowerback 15.58 0.899314 0.716079
upperback -6.56843 0.858161 -2.97499
thorax -16.2694 0.0520726 -4.05845
lowerneck -13.4041 -2.0443 -2.75919
upperneck 35.8814 -2.95217 -1.92346
head 14.6407 -2.41374 -0.915201
rclavicle 5.14355e-015 -3.97569e-015
rhumerus 18.2544 -9.3697 -24.3565
rradius 108.245
rwrist -6.93997
rhand -40.468 0.447616
rfingers 7.12502
rthumb -13.4189 -29.1002
lclavicle 5.14355e-015 -3.97569e-015
lhumerus 27.6916 6.20488 31.2492
lradius 105.204
lwrist -27.4497
lhand -59.2962 30.3379
lfingers 7.12502
lthumb -31.4815 -302.354
rfemur -14.4759 13.4215 11.338
rtibia 43.8465
rfoot -35.4166 -23.7276
rtoes -18.6577
lfemur -12.2743 -6.05358 -29.9391
ltibia 34.9321
lfoot -21.1273 -11.3404
ltoes -42.6122
374
root 5.74219 15.1488 0.78678 250.278 -81.8631 -251.27
lowerback 15.4403 0.890703 0.295952
upperback -6.72936 0.751796 -2.92399
thorax -16.3917 0.0461768 -3.73057
lowerneck -14.4465 -1.90891 -3.04735
upperneck 35.8974 -2.53054 -2.00774
head 14.8946 -2.26252 -0.849158
rclavicle 2.88238e-015 -5.96354e-016
rhumerus 18.5064 -9.43867 -24.2943
rradius 108.816
rwrist -7.75933
rhand -40.8192 0.0242226
rfingers 7.12502
rthumb -13.7574 -29.5009
lclavicle 2.88238e-015 -5.96354e-016
lhumerus 26.8061 6.87512 31.3601
lradius 106.089
lwrist -27.3022
lhand -59.1794 30.1673
lfingers 7.12502
lthumb -31.3703 -302.502
rfemur -16.2291 14.1954 10.2597
rtibia 43.6245
rfoot -35.4669 -23.8692
rtoes -18.0001
lfemur -13.7989 -6.50255 -30.5402
ltibia 34.4868
lfoot -20.9562 -11.1094
ltoes -42.1488
375
root 5.81726 15.2115 0.802148 251.091 -81.3578 -250.7
lowerback 15.3125 0.966308 0.0823421
upperback -6.96069 0.787333 -2.96959
thorax -16.596 0.0716256 -3.67681
lowerneck -14.7361 -1.94659 -3.2595
upperneck 35.3661 -2.4409 -2.00654
head 14.7162 -2.22283 -0.782359
rclavicle 1.43125e-014 5.1684e-015
rhumerus 18.288 -9.60479 -24.287
rradius 109.35
rwrist -8.03593
rhand -40.9893 -0.16032
rfingers 7.12502
rthumb -13.9213 -29.6743
lclavicle 1.43125e-014 5.1684e-015
lhumerus 26.109 7.26461 31.4422
lradius 107.119
lwrist -27.157
lhand -59.1491 30.1247
lfingers 7.12502
lthumb -31.3415 -302.539
rfemur -18.0151 14.6746 9.20508
rtibia 43.0908
rfoot -35.3262 -23.5928
rtoes -16.1729
lfemur -15.3707 -7.19236 -30.9336
ltibia 34.1523
lfoot -21.093 -10.964
ltoes -41.5856
